<?xml version="1.0" standalone="no"?>
<!DOCTYPE svg PUBLIC "-//W3C//DTD SVG 20010904//EN"
 "http://www.w3.org/TR/2001/REC-SVG-20010904/DTD/svg10.dtd">
<svg version="1.0" xmlns="http://www.w3.org/2000/svg"
 width="50.000000pt" height="50.000000pt" viewBox="0 0 50.000000 50.000000"
 preserveAspectRatio="xMidYMid meet">

<g transform="translate(0.000000,50.000000) scale(0.100000,-0.100000)"
fill="#000000" stroke="none">
<path d="M145 485 c-22 -8 -54 -30 -72 -49 -63 -68 -68 -170 -14 -272 22 -41
31 -70 31 -105 0 -27 5 -49 10 -49 23 0 10 94 -25 170 -40 88 -44 135 -16 195
32 69 91 105 170 105 92 0 162 -47 181 -123 6 -23 22 -63 36 -89 l25 -48 -25
-12 c-22 -9 -26 -18 -26 -55 0 -54 -26 -83 -75 -83 -32 0 -35 -2 -35 -30 0
-17 5 -30 10 -30 6 0 10 9 10 20 0 13 7 20 20 20 52 0 90 41 90 98 0 17 10 34
28 48 l27 23 -27 48 c-14 26 -31 67 -37 90 -31 114 -160 172 -286 128z"/>
<path d="M120 311 l0 -89 60 -4 c33 -2 87 -2 120 0 l60 4 0 89 0 88 -120 0
-120 0 0 -88z m108 -10 c3 -64 1 -73 -13 -67 -9 3 -30 6 -46 6 l-29 0 0 71 0
70 43 -3 42 -3 3 -74z m112 9 l0 -70 -29 0 c-16 0 -36 -3 -45 -6 -14 -5 -16 4
-16 63 0 38 3 73 7 76 3 4 24 7 45 7 l38 0 0 -70z"/>
<path d="M90 286 l0 -94 75 -7 c41 -4 109 -4 150 0 l75 7 0 94 c0 56 -4 94
-10 94 -6 0 -10 -35 -10 -84 l0 -84 -65 -7 c-36 -4 -94 -4 -130 0 l-65 7 0 84
c0 49 -4 84 -10 84 -6 0 -10 -38 -10 -94z"/>
</g>
</svg>
